<?xml version="1.0" encoding="utf-8"?>
<!-- Generator: Adobe Illustrator 24.1.3, SVG Export Plug-In . SVG Version: 6.00 Build 0)  -->
<svg version="1.1" id="Camada_1" xmlns="http://www.w3.org/2000/svg" xmlns:xlink="http://www.w3.org/1999/xlink" x="0px" y="0px"
	 viewBox="0 0 20.5 53.7" style="enable-background:new 0 0 20.5 53.7;" xml:space="preserve">
<style type="text/css">
	.st0{fill-rule:evenodd;clip-rule:evenodd;fill:url(#SVGID_1_);}
	.st1{fill-rule:evenodd;clip-rule:evenodd;fill:url(#SVGID_2_);}
	.st2{fill-rule:evenodd;clip-rule:evenodd;fill:url(#SVGID_3_);}
	.st3{fill-rule:evenodd;clip-rule:evenodd;fill:url(#SVGID_4_);}
	.st4{fill-rule:evenodd;clip-rule:evenodd;fill:url(#SVGID_5_);}
	.st5{fill-rule:evenodd;clip-rule:evenodd;fill:url(#SVGID_6_);}
	.st6{fill-rule:evenodd;clip-rule:evenodd;fill:url(#SVGID_7_);}
</style>
<g>
	
		<linearGradient id="SVGID_1_" gradientUnits="userSpaceOnUse" x1="-166.4132" y1="915.2311" x2="-133.9075" y2="915.2311" gradientTransform="matrix(-0.8797 0.4756 -0.4756 -0.8797 316.326 900.1677)">
		<stop  offset="0" style="stop-color:#12C4C4"/>
		<stop  offset="9.019999e-02" style="stop-color:#12BEC3"/>
		<stop  offset="0.2157" style="stop-color:#12ACC0"/>
		<stop  offset="0.3608" style="stop-color:#1290BC"/>
		<stop  offset="0.5137" style="stop-color:#1269B6"/>
		<stop  offset="0.6471" style="stop-color:#1241B0"/>
		<stop  offset="0.7333" style="stop-color:#134AAD"/>
		<stop  offset="0.8706" style="stop-color:#1661A4"/>
		<stop  offset="1" style="stop-color:#1A7D99"/>
	</linearGradient>
	<path class="st0" d="M13.8,31.4c-0.3,1.2-0.7,4.8-1.4,10.6c-0.6,5.1-1.2,8.4-1.5,9.7c-0.4,1.5-0.8,1.1-1-1.1
		c-0.2-3.4-0.4-5.9-0.6-7.7C9.1,41.2,8.6,37,7.7,30c-0.2-1.3-0.3-3-0.4-5.1c-0.1-1-0.4-2.5-1.1-4.5c-0.9-2.6-1.4-4.7-1.7-6.3
		C4.4,12.5,4.2,11,4.3,9.5c0-1-0.3-1.8-0.9-2.4c-1-0.8-1.8-2-2.4-3.6C-0.3,0.4,19.6,1,19.6,1.5C19.5,2.2,18.3,6,16,13
		c-0.3,0.9-0.4,1.5-0.4,1.8c0.1,0.8-0.1,2.9-0.6,6.5c-0.5,3.2-0.8,5.5-0.9,6.9C14.4,28.3,14.1,29.4,13.8,31.4z"/>
	
		<linearGradient id="SVGID_2_" gradientUnits="userSpaceOnUse" x1="-1370.1001" y1="167.1458" x2="-1344.9288" y2="167.1458" gradientTransform="matrix(0.552 0.8338 -0.8338 0.552 897.0809 1061.4025)">
		<stop  offset="0" style="stop-color:#87D6D4"/>
		<stop  offset="1" style="stop-color:#87D6D4;stop-opacity:0"/>
	</linearGradient>
	<path class="st1" d="M5.7,15.9C5.2,13.4,5.1,11,5.3,8.6c1,0.8,2,1.9,3.1,3.4c2,2.7,3.2,5.5,3.3,8.3s-0.5,5.4-1.6,8.2
		c-0.5,1.4-1.1,2.5-1.7,3.3c-0.2-2-0.4-4.2-0.5-6.6c0-1.4-0.4-2.9-0.8-4.5C6.3,18.3,5.9,16.8,5.7,15.9z"/>
	
		<linearGradient id="SVGID_3_" gradientUnits="userSpaceOnUse" x1="-1352.0406" y1="170.2368" x2="-1334.5627" y2="170.2368" gradientTransform="matrix(0.5518 0.834 -0.834 0.5518 896.9751 1061.4766)">
		<stop  offset="0" style="stop-color:#87D6D4"/>
		<stop  offset="1" style="stop-color:#87D6D4;stop-opacity:0"/>
	</linearGradient>
	<path class="st2" d="M12.8,34.8c-0.4,2.5-0.8,5.4-1.1,8.5L11,41.7c-0.5-1.5-0.9-3.5-1.1-5.9s0.4-5,1.9-7.9c0.7-1.5,1.5-2.7,2.3-3.6
		c0.4-0.1,0.3,1.1-0.2,3.7C13.5,31.2,13,33.5,12.8,34.8z"/>
</g>
<linearGradient id="SVGID_4_" gradientUnits="userSpaceOnUse" x1="-1376.9862" y1="149.2633" x2="-1371.2218" y2="149.2633" gradientTransform="matrix(0.6596 0.7516 -0.7516 0.6596 1027.0353 941.299)">
	<stop  offset="0" style="stop-color:#87D6D4"/>
	<stop  offset="1" style="stop-color:#87D6D4;stop-opacity:0"/>
</linearGradient>
<path class="st3" d="M8.6,9.3C7.9,9.6,6.9,9.3,5.8,8.3c-0.6-0.5-1.1-1-1.5-1.6c1.9-1.5,3.5-2.6,5-3.5C9.5,4.2,9.5,5,9.6,5.9
	C9.6,7.8,9.3,8.9,8.6,9.3z"/>
<linearGradient id="SVGID_5_" gradientUnits="userSpaceOnUse" x1="-1372.9752" y1="153.3725" x2="-1358.557" y2="153.3725" gradientTransform="matrix(0.5522 0.8337 -0.8337 0.5522 897.1596 1061.3792)">
	<stop  offset="0" style="stop-color:#87D6D4"/>
	<stop  offset="1" style="stop-color:#87D6D4;stop-opacity:0"/>
</linearGradient>
<path class="st4" d="M19,1.7c-0.4,1.8-0.9,3.8-1.6,5.9c-1.5,4.1-2.5,5.9-4.6,6.9c-1.1,0.5-2.2-3.5-2.5-7.2c-0.1-1.9-0.3-3.1-0.4-5.2
	C13.7,1.3,16.6,2.7,19,1.7z"/>
<linearGradient id="SVGID_6_" gradientUnits="userSpaceOnUse" x1="-1333.27" y1="60.3065" x2="-1324.9059" y2="60.3065" gradientTransform="matrix(0.6336 -0.7737 0.7737 0.6336 801.186 -1064.0808)">
	<stop  offset="0" style="stop-color:#87D6D4"/>
	<stop  offset="1" style="stop-color:#87D6D4;stop-opacity:0"/>
</linearGradient>
<path class="st5" d="M2.1,2.7c1.5-0.2,2.6-0.5,4-0.6C8.8,1.8,10,1.9,9.5,2.3C8.7,2.9,6.9,4.5,3.8,6.4c-0.5-0.5-1-1.1-1.4-1.6
	C1.5,3.7,1.5,2.9,2.1,2.7z"/>
<linearGradient id="SVGID_7_" gradientUnits="userSpaceOnUse" x1="-1337.4176" y1="170.9197" x2="-1330.4457" y2="170.9197" gradientTransform="matrix(0.2367 1.2279 -1.1376 0.2677 524.2963 1611.543)">
	<stop  offset="0" style="stop-color:#87D6D4"/>
	<stop  offset="1" style="stop-color:#87D6D4;stop-opacity:0"/>
</linearGradient>
<path class="st6" d="M12.9,22.5c-0.2-0.1-0.3-0.5-0.5-1.2c-0.2-0.8-0.3-1.7-0.3-2.7c0-0.1,0-0.4,0-0.7c0-0.2,0-0.3,0.1-0.5
	c0.9-0.2,1.6-0.8,2.3-1.6c0.3-0.4,0.6-0.9,0.7-1.3c-0.1,0.5-0.2,1.2-0.3,1.9c-0.3,1.4-0.6,2.5-0.9,3.4c-0.3,0.8-0.6,1.5-0.9,2.1
	L12.9,22.5L12.9,22.5z"/>
</svg>
